<svg width="107" height="62" viewBox="0 0 107 62" fill="none" xmlns="http://www.w3.org/2000/svg">
<path d="M53.4775 37.8149C53.1516 37.8149 52.8346 37.8823 52.554 38.041L43.6757 43.1682C43.1012 43.4993 42.752 44.1244 42.752 44.7896V55.0253C42.752 55.6899 43.1012 56.3143 43.6757 56.6462L45.9943 57.9847C47.1209 58.5399 47.5361 58.5312 48.0489 58.5312C49.7167 58.5312 50.669 57.5192 50.669 55.7604V45.6565C50.669 45.5138 50.5454 45.4116 50.4052 45.4116H49.293C49.1505 45.4116 49.0292 45.5138 49.0292 45.6565V55.7604C49.0292 56.5398 48.2171 57.324 46.8992 56.6651L44.4863 55.2514C44.4009 55.205 44.3354 55.123 44.3354 55.0253V44.7894C44.3354 44.6924 44.4001 44.5937 44.4863 44.5444L53.3458 39.4364C53.3858 39.413 53.4313 39.4007 53.4777 39.4007C53.524 39.4007 53.5695 39.413 53.6096 39.4364L62.4693 44.5447C62.5536 44.5955 62.6202 44.6895 62.6202 44.7899V55.0255C62.6202 55.1233 62.5709 55.2233 62.4881 55.2705L53.6096 60.3788C53.5336 60.4241 53.4288 60.4241 53.3458 60.3788L51.0649 59.0217C51.0302 59.0028 50.9913 58.993 50.9518 58.993C50.9123 58.993 50.8735 59.0028 50.8388 59.0217C50.2092 59.3785 50.0908 59.4199 49.5003 59.6248C49.3549 59.6756 49.134 59.7544 49.5757 60.002L52.554 61.7547C52.8348 61.9167 53.1536 62.0014 53.4778 62C53.802 62.002 54.1208 61.9174 54.4013 61.755L63.2799 56.6465C63.8544 56.3124 64.2034 55.6902 64.2034 55.0255V44.7896C64.2034 44.1247 63.8544 43.5006 63.2799 43.1687L54.4013 38.0416C54.1231 37.8825 53.804 37.8152 53.4778 37.8152L53.4775 37.8149Z" fill="#83CD29"/>
<path d="M55.853 45.1288C53.3248 45.1288 51.8191 46.2048 51.8191 47.9942C51.8191 49.935 53.3135 50.4684 55.7401 50.7084C58.6429 50.9926 58.869 51.4189 58.869 51.9903C58.869 52.9814 58.0788 53.404 56.2114 53.404C53.8647 53.404 53.3491 52.8182 53.1765 51.651C53.1561 51.5258 53.0594 51.4246 52.9313 51.4246H51.7814C51.6399 51.4246 51.5176 51.5467 51.5176 51.6887C51.5176 53.1829 52.3303 54.9497 56.2114 54.9497C59.0207 54.9497 60.6411 53.847 60.6411 51.9148C60.6411 49.9997 59.3322 49.4854 56.607 49.1252C53.8535 48.7607 53.591 48.5823 53.591 47.9376C53.591 47.4052 53.8137 46.6931 55.853 46.6931C57.6749 46.6931 58.3482 47.0861 58.624 48.3146C58.6481 48.4298 58.7498 48.5218 58.869 48.5218H60.0191C60.0899 48.5218 60.1585 48.4783 60.2075 48.4275C60.2557 48.3733 60.2898 48.3122 60.283 48.2391C60.1048 46.1238 58.6943 45.1288 55.853 45.1288Z" fill="#83CD29"/>
<path d="M71.6659 0.000243778C71.5667 0.000309606 71.4692 0.0262239 71.383 0.0754347C71.2973 0.125546 71.2262 0.197103 71.1767 0.283056C71.1271 0.36901 71.1008 0.466395 71.1003 0.565616V14.986C71.1003 15.1275 71.0345 15.2543 70.9119 15.3253C70.8518 15.3603 70.7835 15.3787 70.714 15.3787C70.6444 15.3787 70.5761 15.3603 70.5161 15.3253L68.1597 13.9682C67.9879 13.8688 67.7928 13.8164 67.5942 13.8164C67.3957 13.8164 67.2006 13.8688 67.0287 13.9682L57.6225 19.3969C57.2709 19.5999 57.0572 19.99 57.0572 20.3961V31.2537C57.0572 31.6593 57.2712 32.0308 57.6225 32.2338L67.0287 37.6628C67.2005 37.7625 67.3956 37.815 67.5942 37.815C67.7929 37.815 67.9879 37.7625 68.1597 37.6628L77.5659 32.2338C77.7381 32.1347 77.8811 31.9919 77.9805 31.8198C78.0798 31.6477 78.1319 31.4524 78.1316 31.2537V4.185C78.1313 3.98164 78.0771 3.782 77.9744 3.60645C77.8718 3.4309 77.7244 3.28573 77.5473 3.18577L71.9486 0.0565715C71.8608 0.00757948 71.7634 -0.00106617 71.6659 0.000243778ZM11.1569 13.5535C10.9777 13.5605 10.809 13.592 10.6481 13.6853L1.24165 19.1142C1.06934 19.2132 0.926282 19.356 0.826988 19.5281C0.727694 19.7002 0.675698 19.8956 0.676274 20.0943L0.695138 34.6659C0.695138 34.8684 0.799671 35.0568 0.977824 35.1558C1.06323 35.2071 1.161 35.2342 1.26064 35.2342C1.36028 35.2342 1.45805 35.2071 1.54346 35.1558L7.12304 31.9514C7.47647 31.7413 7.70728 31.3761 7.70728 30.971V24.1661C7.70728 23.76 7.9208 23.3875 8.27292 23.1858L10.6478 21.8098C10.8196 21.71 11.0149 21.6579 11.2135 21.6589C11.4074 21.6589 11.6065 21.7074 11.7789 21.8098L14.154 23.1858C14.3265 23.2847 14.4697 23.4275 14.5691 23.5997C14.6684 23.7719 14.7204 23.9673 14.7197 24.1661V30.9708C14.7197 31.3758 14.9529 31.7436 15.3039 31.9511L20.8835 35.1558C20.9689 35.2071 21.0667 35.2342 21.1663 35.2342C21.266 35.2342 21.3637 35.2071 21.4491 35.1558C21.5351 35.106 21.6065 35.0346 21.6562 34.9485C21.7058 34.8625 21.732 34.7649 21.7321 34.6656L21.7504 20.0943C21.7515 19.8955 21.6998 19.6999 21.6004 19.5277C21.5011 19.3555 21.3577 19.2128 21.1851 19.1142L11.7789 13.6853C11.6198 13.592 11.4506 13.5608 11.2701 13.5535H11.1569ZM95.6809 13.6853C95.4844 13.6853 95.2919 13.735 95.1155 13.8362L85.7093 19.2651C85.5371 19.3642 85.3941 19.507 85.2947 19.6791C85.1954 19.8512 85.1433 20.0465 85.1437 20.2452V31.1028C85.1437 31.5113 85.3737 31.8812 85.7279 32.0832L95.059 37.3989C95.4035 37.5954 95.8242 37.6104 96.1711 37.4173L101.826 34.2695C102.006 34.1699 102.127 33.9839 102.128 33.7796C102.129 33.6801 102.103 33.5821 102.053 33.4959C102.004 33.4097 101.932 33.3384 101.845 33.2894L92.3822 27.8604C92.2051 27.7593 92.0807 27.5547 92.0807 27.3514V23.9586C92.0807 23.7556 92.2064 23.5696 92.3822 23.4685L95.3228 21.7718C95.4087 21.7221 95.5063 21.6959 95.6056 21.6959C95.7049 21.6959 95.8025 21.7221 95.8884 21.7718L98.8287 23.4685C98.9149 23.5179 98.9864 23.5893 99.0361 23.6754C99.0858 23.7614 99.1118 23.859 99.1117 23.9584V26.6351C99.1114 26.7345 99.1374 26.8321 99.1871 26.9181C99.2367 27.0042 99.3082 27.0756 99.3943 27.125C99.5707 27.2269 99.7839 27.2272 99.9597 27.125L105.596 23.8457C105.768 23.7462 105.911 23.6033 106.01 23.4312C106.109 23.2592 106.162 23.064 106.162 22.8654V20.2455C106.162 19.8407 105.947 19.4684 105.596 19.2651L96.2466 13.8362C96.0747 13.7367 95.8795 13.6845 95.6809 13.6853ZM67.5564 21.7909C67.6056 21.7909 67.6633 21.803 67.7073 21.8284L70.9308 23.6945C71.0183 23.7451 71.0817 23.8386 71.0817 23.9395V27.6718C71.0817 27.7732 71.0188 27.8665 70.9308 27.917L67.7073 29.7832C67.6642 29.8078 67.6155 29.8207 67.5659 29.8207C67.5164 29.8207 67.4676 29.8078 67.4246 29.7832L64.2013 27.917C64.1136 27.8662 64.0504 27.7732 64.0504 27.6718V23.9395C64.0504 23.8384 64.1138 23.7456 64.2013 23.6945L67.4246 21.8287C67.4642 21.804 67.51 21.791 67.5566 21.7912L67.5564 21.7909Z" fill="#404137"/>
<path d="M39.4132 13.6287C39.2172 13.6287 39.0233 13.6784 38.8478 13.7796L29.4416 19.1896C29.0898 19.3922 28.876 19.7831 28.876 20.1886V31.0462C28.876 31.4523 29.09 31.8233 29.4416 32.0266L38.8478 37.4553C39.0196 37.5551 39.2147 37.6076 39.4133 37.6076C39.612 37.6076 39.8071 37.5551 39.9788 37.4553L49.385 32.0266C49.5572 31.9274 49.7002 31.7845 49.7995 31.6124C49.8987 31.4403 49.9508 31.245 49.9504 31.0462V20.1886C49.9504 19.7825 49.7366 19.3922 49.385 19.1896L39.9788 13.7796C39.8069 13.6803 39.6117 13.6282 39.4132 13.6287ZM95.662 23.3178C95.6245 23.3178 95.5829 23.3178 95.5491 23.3367L93.7395 24.3922C93.7058 24.411 93.6776 24.4383 93.6577 24.4714C93.6378 24.5045 93.627 24.5423 93.6264 24.5809V26.6542C93.6264 26.7323 93.6714 26.8038 93.7395 26.8429L95.5491 27.8796C95.617 27.9189 95.6893 27.9189 95.7563 27.8796L97.5659 26.8426C97.5995 26.8238 97.6276 26.7965 97.6475 26.7634C97.6673 26.7304 97.6782 26.6928 97.6791 26.6542V24.5806C97.6782 24.5421 97.6673 24.5044 97.6475 24.4714C97.6276 24.4384 97.5995 24.4111 97.5659 24.3922L95.7563 23.3364C95.7228 23.3168 95.6997 23.3178 95.662 23.3178Z" fill="#83CD29"/>
</svg>
